<?xml version="1.0" encoding="UTF-8"?>
<svg width="80px" height="80px" viewBox="0 0 80 80" version="1.1" xmlns="http://www.w3.org/2000/svg" xmlns:xlink="http://www.w3.org/1999/xlink">
    <title>sygnet-moon-logo-light copy</title>
    <g id="sygnet-moon-logo-light-copy" stroke="none" stroke-width="1" fill="none" fill-rule="evenodd">
        <rect id="Rectangle" fill="#070707" x="0" y="0" width="80" height="80" rx="10"></rect>
        <path d="M49.4596365,21 L49.1321434,21 L40.0933355,27.0905174 C39.574259,25.9825493 38.8783363,24.9837243 38.0186671,24.1155403 C37.6387752,23.7318856 37.268708,23.4094173 36.895366,23.1332521 C35.0777796,21.737543 32.8884886,21 30.5616506,21 L30.2259702,21 L20,27.8925541 L20,59 L22.2056656,57.5149919 L22.2056656,29.6702642 C26.3582774,30.2159798 29.4481742,33.7416337 29.4481742,38.0081379 L29.4481742,59 L41.1036515,51.1532704 L41.1036515,29.6702642 C45.2562633,30.2159798 48.3461601,33.7416337 48.3461601,38.0081379 L48.3461601,59 L60,51.1532704 L60,31.6464163 C60,25.7758388 55.272638,21 49.4596365,21 Z" id="Fill-1" fill="#FFFFFF"></path>
    </g>
</svg>