<svg height="50" viewBox="0 0 50 50" width="50" xmlns="http://www.w3.org/2000/svg"><g fill="none" fill-rule="evenodd"><rect fill="#dae2f7" fill-rule="nonzero" height="50" rx="5" width="50"/><path d="m9.84375 3.375h7.3125m-7.3125 11.25h7.3125m-13.78125-8.71875c-.90432854 0-1.73996257-.4824535-2.19212685-1.26562498-.45216427-.78317149-.45216427-1.74807855 0-2.53125004.45216428-.78317148 1.28779831-1.26562498 2.19212685-1.26562498 1.39797077 0 2.53125 1.13327923 2.53125 2.53125s-1.13327923 2.53125-2.53125 2.53125zm0 11.25c-1.39797077 0-2.53125-1.1332792-2.53125-2.53125s1.13327923-2.53125 2.53125-2.53125 2.53125 1.1332792 2.53125 2.53125-1.13327923 2.53125-2.53125 2.53125z" stroke="#007aff" stroke-linecap="round" stroke-linejoin="round" stroke-width="1.6875" transform="translate(16 16)"/></g></svg>